<svg id="Layer_2" data-name="Layer 2" xmlns="http://www.w3.org/2000/svg" viewBox="0 0 1080 610">
  <title>bg_stars</title>
  <g>
    <g>
      <rect x="1005.2" y="418.24" width="2.27" height="2.27" fill="none"/>
      <circle cx="1006.34" cy="419.37" r="1.14" fill="#fff"/>
    </g>
    <g>
      <rect x="970.91" y="445.26" width="1.22" height="1.22" fill="none"/>
      <circle cx="971.52" cy="445.87" r="0.61" fill="#fff"/>
    </g>
    <g>
      <rect x="901.13" y="430.22" width="2.47" height="2.47" fill="none"/>
      <circle cx="902.37" cy="431.46" r="1.24" fill="#fff"/>
    </g>
    <g>
      <rect x="785.56" y="394.8" width="1.5" height="1.5" fill="none"/>
      <circle cx="786.31" cy="395.54" r="0.75" fill="#fff"/>
    </g>
    <g>
      <rect x="771.94" y="308.24" width="3.23" height="3.23" fill="none"/>
      <circle cx="773.55" cy="309.86" r="1.61" fill="#fff"/>
    </g>
    <g>
      <rect x="765.9" y="264.89" width="1.69" height="1.69" fill="none"/>
      <circle cx="766.75" cy="265.73" r="0.85" fill="#fff"/>
    </g>
    <g>
      <rect x="701.65" y="213.28" width="3.11" height="3.11" fill="none"/>
      <circle cx="703.2" cy="214.83" r="1.55" fill="#fff"/>
    </g>
    <g>
      <rect x="642.01" y="226.55" width="2.71" height="2.71" fill="none"/>
      <circle cx="643.36" cy="227.91" r="1.35" fill="#fff"/>
    </g>
    <g>
      <rect x="583.4" y="248.05" width="1.26" height="1.26" fill="none"/>
      <circle cx="584.03" cy="248.68" r="0.63" fill="#fff"/>
    </g>
    <g>
      <rect x="555.78" y="288.46" width="1.08" height="1.08" fill="none"/>
      <circle cx="556.32" cy="289" r="0.54" fill="#fff"/>
    </g>
    <g>
      <rect x="554.52" y="356.37" width="3.04" height="3.04" fill="none"/>
      <circle cx="556.04" cy="357.89" r="1.52" fill="#fff"/>
    </g>
    <g>
      <rect x="538.49" y="366.41" width="3.27" height="3.27" fill="none"/>
      <circle cx="540.12" cy="368.05" r="1.63" fill="#fff"/>
    </g>
    <g>
      <rect x="520.47" y="388.2" width="1.8" height="1.8" fill="none"/>
      <circle cx="521.37" cy="389.1" r="0.9" fill="#fff"/>
    </g>
    <g>
      <rect x="464.06" y="403.93" width="3.23" height="3.23" fill="none"/>
      <circle cx="465.67" cy="405.55" r="1.61" fill="#fff"/>
    </g>
    <g>
      <rect x="495.93" y="433.07" width="1.68" height="1.68" fill="none"/>
      <circle cx="496.77" cy="433.91" r="0.84" fill="#fff"/>
    </g>
    <g>
      <rect x="426.51" y="486.28" width="1.72" height="1.72" fill="none"/>
      <circle cx="427.36" cy="487.14" r="0.86" fill="#fff"/>
    </g>
    <g>
      <rect x="383.25" y="503.9" width="2.07" height="2.07" fill="none"/>
      <circle cx="384.28" cy="504.94" r="1.04" fill="#fff"/>
    </g>
    <g>
      <rect x="364.5" y="516.79" width="1.59" height="1.59" fill="none"/>
      <circle cx="365.3" cy="517.59" r="0.79" fill="#fff"/>
    </g>
    <g>
      <rect x="244.9" y="531.26" width="2.46" height="2.46" fill="none"/>
      <circle cx="246.13" cy="532.49" r="1.23" fill="#fff"/>
    </g>
    <g>
      <rect x="246.59" y="495.73" width="1.65" height="1.65" fill="none"/>
      <circle cx="247.41" cy="496.55" r="0.83" fill="#fff"/>
    </g>
    <g>
      <rect x="148.34" y="440.42" width="2.06" height="2.06" fill="none"/>
      <circle cx="149.37" cy="441.45" r="1.03" fill="#fff"/>
    </g>
    <g>
      <rect x="140.91" y="414.01" width="2.65" height="2.65" fill="none"/>
      <circle cx="142.24" cy="415.33" r="1.33" fill="#fff"/>
    </g>
    <g>
      <rect x="105.64" y="337.23" width="1.42" height="1.42" fill="none"/>
      <circle cx="106.35" cy="337.93" r="0.71" fill="#fff"/>
    </g>
    <g>
      <rect x="65.32" y="306.6" width="3.13" height="3.13" fill="none"/>
      <circle cx="66.89" cy="308.16" r="1.57" fill="#fff"/>
    </g>
    <g>
      <rect x="85.28" y="371.68" width="1.92" height="1.92" fill="none"/>
      <circle cx="86.24" cy="372.64" r="0.96" fill="#fff"/>
    </g>
  </g>
  <g>
    <g>
      <rect x="1006.73" y="533.46" width="2.11" height="2.11" fill="none"/>
      <circle cx="1007.79" cy="534.51" r="1.06" fill="#fff"/>
    </g>
    <g>
      <rect x="955.02" y="544.69" width="2" height="2" fill="none"/>
      <circle cx="956.02" cy="545.69" r="1" fill="#fff"/>
    </g>
    <g>
      <rect x="931.1" y="529.14" width="2.2" height="2.2" fill="none"/>
      <circle cx="932.2" cy="530.24" r="1.1" fill="#fff"/>
    </g>
    <g>
      <rect x="881.59" y="514.21" width="1.95" height="1.95" fill="none"/>
      <circle cx="882.57" cy="515.19" r="0.97" fill="#fff"/>
    </g>
    <g>
      <rect x="785.6" y="505.75" width="2.86" height="2.86" fill="none"/>
      <circle cx="787.03" cy="507.18" r="1.43" fill="#fff"/>
    </g>
    <g>
      <rect x="708.46" y="437.99" width="1.43" height="1.43" fill="none"/>
      <circle cx="709.18" cy="438.71" r="0.72" fill="#fff"/>
    </g>
    <g>
      <rect x="706.13" y="404.88" width="2.59" height="2.59" fill="none"/>
      <circle cx="707.43" cy="406.18" r="1.3" fill="#fff"/>
    </g>
    <g>
      <rect x="700.54" y="395.85" width="1.92" height="1.92" fill="none"/>
      <circle cx="701.5" cy="396.8" r="0.96" fill="#fff"/>
    </g>
    <g>
      <rect x="677.89" y="365.15" width="1.27" height="1.27" fill="none"/>
      <circle cx="678.53" cy="365.79" r="0.63" fill="#fff"/>
    </g>
    <g>
      <rect x="629.21" y="318.52" width="2.26" height="2.26" fill="none"/>
      <circle cx="630.34" cy="319.65" r="1.13" fill="#fff"/>
    </g>
    <g>
      <rect x="629.37" y="257.69" width="1.92" height="1.92" fill="none"/>
      <circle cx="630.33" cy="258.65" r="0.96" fill="#fff"/>
    </g>
    <g>
      <rect x="576.06" y="199.31" width="2.47" height="2.47" fill="none"/>
      <circle cx="577.3" cy="200.55" r="1.24" fill="#fff"/>
    </g>
    <g>
      <rect x="529.93" y="169.53" width="2.68" height="2.68" fill="none"/>
      <circle cx="531.27" cy="170.87" r="1.34" fill="#fff"/>
    </g>
    <g>
      <rect x="474.51" y="220.3" width="2.77" height="2.77" fill="none"/>
      <circle cx="475.89" cy="221.69" r="1.38" fill="#fff"/>
    </g>
    <g>
      <rect x="392.65" y="233.71" width="2.3" height="2.3" fill="none"/>
      <circle cx="393.8" cy="234.86" r="1.15" fill="#fff"/>
    </g>
    <g>
      <rect x="339.03" y="208.51" width="2.55" height="2.55" fill="none"/>
      <circle cx="340.31" cy="209.78" r="1.28" fill="#fff"/>
    </g>
    <g>
      <rect x="292.27" y="238.74" width="1.24" height="1.24" fill="none"/>
      <circle cx="292.89" cy="239.36" r="0.62" fill="#fff"/>
    </g>
    <g>
      <rect x="283.41" y="220.78" width="2.2" height="2.2" fill="none"/>
      <circle cx="284.51" cy="221.88" r="1.1" fill="#fff"/>
    </g>
    <g>
      <rect x="282.01" y="219.6" width="2.67" height="2.67" fill="none"/>
      <circle cx="283.34" cy="220.94" r="1.33" fill="#fff"/>
    </g>
    <g>
      <rect x="279.7" y="271.18" width="1.23" height="1.23" fill="none"/>
      <circle cx="280.31" cy="271.8" r="0.62" fill="#fff"/>
    </g>
    <g>
      <rect x="217.63" y="271.2" width="3.11" height="3.11" fill="none"/>
      <circle cx="219.19" cy="272.75" r="1.55" fill="#fff"/>
    </g>
    <g>
      <rect x="210.62" y="231.11" width="1.46" height="1.46" fill="none"/>
      <circle cx="211.35" cy="231.84" r="0.73" fill="#fff"/>
    </g>
    <g>
      <rect x="172.53" y="262.16" width="1.01" height="1.01" fill="none"/>
      <circle cx="173.04" cy="262.67" r="0.5" fill="#fff"/>
    </g>
    <g>
      <rect x="130.07" y="197.9" width="1.18" height="1.18" fill="none"/>
      <circle cx="130.66" cy="198.49" r="0.59" fill="#fff"/>
    </g>
    <g>
      <rect x="124.49" y="137.08" width="3" height="3" fill="none"/>
      <circle cx="125.98" cy="138.58" r="1.5" fill="#fff"/>
    </g>
    <g>
      <rect x="55.12" y="127.95" width="3.23" height="3.23" fill="none"/>
      <circle cx="56.73" cy="129.56" r="1.61" fill="#fff"/>
    </g>
    <g>
      <rect x="61.18" y="73.72" width="3.07" height="3.07" fill="none"/>
      <circle cx="62.71" cy="75.25" r="1.53" fill="#fff"/>
    </g>
    <g>
      <rect x="41.67" y="42.27" width="1.83" height="1.83" fill="none"/>
      <circle cx="42.58" cy="43.18" r="0.91" fill="#fff"/>
    </g>
  </g>
  <g>
    <g>
      <rect x="136.29" y="433.81" width="2.94" height="2.94" fill="none"/>
      <circle cx="137.75" cy="435.28" r="1.47" fill="#fff"/>
    </g>
    <g>
      <rect x="185.36" y="420.53" width="2.99" height="2.99" fill="none"/>
      <circle cx="186.86" cy="422.03" r="1.5" fill="#fff"/>
    </g>
    <g>
      <rect x="238.84" y="337.03" width="1.44" height="1.44" fill="none"/>
      <circle cx="239.56" cy="337.75" r="0.72" fill="#fff"/>
    </g>
    <g>
      <rect x="287.24" y="308" width="1.39" height="1.39" fill="none"/>
      <circle cx="287.94" cy="308.69" r="0.7" fill="#fff"/>
    </g>
    <g>
      <rect x="363.44" y="279.36" width="1.41" height="1.41" fill="none"/>
      <circle cx="364.15" cy="280.06" r="0.71" fill="#fff"/>
    </g>
    <g>
      <rect x="395.38" y="292.73" width="2.64" height="2.64" fill="none"/>
      <circle cx="396.7" cy="294.05" r="1.32" fill="#fff"/>
    </g>
    <g>
      <rect x="441.99" y="257.07" width="2.91" height="2.91" fill="none"/>
      <circle cx="443.45" cy="258.53" r="1.45" fill="#fff"/>
    </g>
    <g>
      <rect x="429.44" y="205.91" width="1.59" height="1.59" fill="none"/>
      <circle cx="430.24" cy="206.71" r="0.8" fill="#fff"/>
    </g>
    <g>
      <rect x="470.46" y="149.65" width="1.85" height="1.85" fill="none"/>
      <circle cx="471.39" cy="150.58" r="0.92" fill="#fff"/>
    </g>
    <g>
      <rect x="543.01" y="64.45" width="1.87" height="1.87" fill="none"/>
      <circle cx="543.94" cy="65.39" r="0.93" fill="#fff"/>
    </g>
    <g>
      <rect x="630.18" y="32.58" width="1.35" height="1.35" fill="none"/>
      <circle cx="630.86" cy="33.26" r="0.68" fill="#fff"/>
    </g>
    <g>
      <rect x="730.29" y="57.58" width="1.24" height="1.24" fill="none"/>
      <circle cx="730.91" cy="58.19" r="0.62" fill="#fff"/>
    </g>
    <g>
      <rect x="781.98" y="52.75" width="3.25" height="3.25" fill="none"/>
      <circle cx="783.61" cy="54.38" r="1.62" fill="#fff"/>
    </g>
    <g>
      <rect x="805.8" y="24.16" width="2.04" height="2.04" fill="none"/>
      <circle cx="806.82" cy="25.17" r="1.02" fill="#fff"/>
    </g>
    <g>
      <rect x="870.6" y="61.97" width="3.09" height="3.09" fill="none"/>
      <circle cx="872.14" cy="63.52" r="1.55" fill="#fff"/>
    </g>
    <g>
      <rect x="906.61" y="60.06" width="2.18" height="2.18" fill="none"/>
      <circle cx="907.7" cy="61.15" r="1.09" fill="#fff"/>
    </g>
    <g>
      <rect x="979.52" y="60" width="2.07" height="2.07" fill="none"/>
      <circle cx="980.55" cy="61.04" r="1.04" fill="#fff"/>
    </g>
    <g>
      <rect x="1019.08" y="38.51" width="2.62" height="2.62" fill="none"/>
      <circle cx="1020.39" cy="39.82" r="1.31" fill="#fff"/>
    </g>
  </g>
  <g>
    <g>
      <rect x="780.48" y="594.94" width="2.38" height="2.38" fill="none"/>
      <circle cx="781.67" cy="596.13" r="1.19" fill="#fff"/>
    </g>
    <g>
      <rect x="651.99" y="602.43" width="3.36" height="3.36" fill="none"/>
      <circle cx="653.67" cy="604.11" r="1.68" fill="#fff"/>
    </g>
    <g>
      <rect x="555.18" y="596.04" width="2.07" height="2.07" fill="none"/>
      <circle cx="556.21" cy="597.08" r="1.03" fill="#fff"/>
    </g>
    <g>
      <rect x="525.12" y="569.19" width="3.28" height="3.28" fill="none"/>
      <circle cx="526.76" cy="570.83" r="1.64" fill="#fff"/>
    </g>
    <g>
      <rect x="431.83" y="570.48" width="1.79" height="1.79" fill="none"/>
      <circle cx="432.72" cy="571.37" r="0.89" fill="#fff"/>
    </g>
    <g>
      <rect x="374.5" y="505.66" width="3.23" height="3.23" fill="none"/>
      <circle cx="376.12" cy="507.27" r="1.61" fill="#fff"/>
    </g>
    <g>
      <rect x="348.56" y="433.97" width="1.74" height="1.74" fill="none"/>
      <circle cx="349.43" cy="434.84" r="0.87" fill="#fff"/>
    </g>
    <g>
      <rect x="319.21" y="440.28" width="2.34" height="2.34" fill="none"/>
      <circle cx="320.38" cy="441.45" r="1.17" fill="#fff"/>
    </g>
    <g>
      <rect x="246.36" y="491.8" width="2.81" height="2.81" fill="none"/>
      <circle cx="247.76" cy="493.21" r="1.4" fill="#fff"/>
    </g>
    <g>
      <rect x="177.23" y="511.63" width="3.1" height="3.1" fill="none"/>
      <circle cx="178.78" cy="513.18" r="1.55" fill="#fff"/>
    </g>
    <g>
      <rect x="137.47" y="496.51" width="1.94" height="1.94" fill="none"/>
      <circle cx="138.44" cy="497.48" r="0.97" fill="#fff"/>
    </g>
    <g>
      <rect x="65.65" y="563.23" width="2.08" height="2.08" fill="none"/>
      <circle cx="66.69" cy="564.27" r="1.04" fill="#fff"/>
    </g>
  </g>
  <g>
    <g>
      <rect x="101.05" y="186.93" width="3.36" height="3.36" fill="none"/>
      <circle cx="102.73" cy="188.61" r="1.68" fill="#fff"/>
    </g>
    <g>
      <rect x="118.4" y="174.2" width="2.42" height="2.42" fill="none"/>
      <circle cx="119.61" cy="175.41" r="1.21" fill="#fff"/>
    </g>
    <g>
      <rect x="168.72" y="150.26" width="1.13" height="1.13" fill="none"/>
      <circle cx="169.28" cy="150.83" r="0.57" fill="#fff"/>
    </g>
    <g>
      <rect x="170.65" y="123.37" width="1.23" height="1.23" fill="none"/>
      <circle cx="171.27" cy="123.99" r="0.61" fill="#fff"/>
    </g>
    <g>
      <rect x="197.15" y="86.83" width="1.98" height="1.98" fill="none"/>
      <circle cx="198.14" cy="87.82" r="0.99" fill="#fff"/>
    </g>
    <g>
      <rect x="243.02" y="58.08" width="1.92" height="1.92" fill="none"/>
      <circle cx="243.98" cy="59.04" r="0.96" fill="#fff"/>
    </g>
    <g>
      <rect x="352.7" y="50.97" width="1.86" height="1.86" fill="none"/>
      <circle cx="353.64" cy="51.9" r="0.93" fill="#fff"/>
    </g>
    <g>
      <rect x="367.83" y="16.65" width="1.67" height="1.67" fill="none"/>
      <circle cx="368.67" cy="17.49" r="0.84" fill="#fff"/>
    </g>
    <g>
      <rect x="373.46" y="10.91" width="3.35" height="3.35" fill="none"/>
      <circle cx="375.13" cy="12.59" r="1.68" fill="#fff"/>
    </g>
    <g>
      <rect x="567.69" y="21.41" width="1.7" height="1.7" fill="none"/>
      <circle cx="568.54" cy="22.25" r="0.85" fill="#fff"/>
    </g>
    <g>
      <rect x="628.55" y="4.16" width="2.67" height="2.67" fill="none"/>
      <circle cx="629.89" cy="5.5" r="1.34" fill="#fff"/>
    </g>
    <g>
      <rect x="705.92" y="55.48" width="1.81" height="1.81" fill="none"/>
      <circle cx="706.83" cy="56.38" r="0.9" fill="#fff"/>
    </g>
    <g>
      <rect x="707.7" y="76.51" width="2.49" height="2.49" fill="none"/>
      <circle cx="708.95" cy="77.75" r="1.24" fill="#fff"/>
    </g>
    <g>
      <rect x="745.8" y="120.16" width="2.43" height="2.43" fill="none"/>
      <circle cx="747.01" cy="121.37" r="1.21" fill="#fff"/>
    </g>
    <g>
      <rect x="856.18" y="120.58" width="2.95" height="2.95" fill="none"/>
      <circle cx="857.65" cy="122.05" r="1.47" fill="#fff"/>
    </g>
    <g>
      <rect x="831.28" y="166.69" width="1.26" height="1.26" fill="none"/>
      <circle cx="831.91" cy="167.32" r="0.63" fill="#fff"/>
    </g>
    <g>
      <rect x="882.18" y="183.22" width="1.64" height="1.64" fill="none"/>
      <circle cx="883" cy="184.04" r="0.82" fill="#fff"/>
    </g>
  </g>
  <g>
    <g>
      <rect x="927.38" y="342.29" width="1.23" height="1.23" fill="none"/>
      <circle cx="927.99" cy="342.9" r="0.62" fill="#fff"/>
    </g>
    <g>
      <rect x="895.47" y="351.17" width="1.67" height="1.67" fill="none"/>
      <circle cx="896.31" cy="352.01" r="0.84" fill="#fff"/>
    </g>
    <g>
      <rect x="870.96" y="394.02" width="1.11" height="1.11" fill="none"/>
      <circle cx="871.51" cy="394.57" r="0.55" fill="#fff"/>
    </g>
    <g>
      <rect x="762.85" y="335.15" width="2.82" height="2.82" fill="none"/>
      <circle cx="764.26" cy="336.56" r="1.41" fill="#fff"/>
    </g>
    <g>
      <rect x="729.12" y="337.63" width="2.69" height="2.69" fill="none"/>
      <circle cx="730.47" cy="338.98" r="1.35" fill="#fff"/>
    </g>
    <g>
      <rect x="672.04" y="255.38" width="3.01" height="3.01" fill="none"/>
      <circle cx="673.54" cy="256.88" r="1.51" fill="#fff"/>
    </g>
    <g>
      <rect x="603.74" y="225.41" width="1.55" height="1.55" fill="none"/>
      <circle cx="604.51" cy="226.19" r="0.78" fill="#fff"/>
    </g>
    <g>
      <rect x="559.24" y="163.25" width="2.32" height="2.32" fill="none"/>
      <circle cx="560.4" cy="164.41" r="1.16" fill="#fff"/>
    </g>
    <g>
      <rect x="504.68" y="197.75" width="1.38" height="1.38" fill="none"/>
      <circle cx="505.37" cy="198.44" r="0.69" fill="#fff"/>
    </g>
    <g>
      <rect x="485.61" y="153.56" width="2.33" height="2.33" fill="none"/>
      <circle cx="486.78" cy="154.73" r="1.17" fill="#fff"/>
    </g>
    <g>
      <rect x="410.62" y="115.97" width="2.21" height="2.21" fill="none"/>
      <circle cx="411.72" cy="117.08" r="1.11" fill="#fff"/>
    </g>
    <g>
      <rect x="349.24" y="128.96" width="1.49" height="1.49" fill="none"/>
      <circle cx="349.98" cy="129.71" r="0.74" fill="#fff"/>
    </g>
    <g>
      <rect x="319.01" y="145.62" width="1.06" height="1.06" fill="none"/>
      <circle cx="319.54" cy="146.15" r="0.53" fill="#fff"/>
    </g>
    <g>
      <rect x="283.21" y="195.55" width="2.65" height="2.65" fill="none"/>
      <circle cx="284.53" cy="196.88" r="1.32" fill="#fff"/>
    </g>
    <g>
      <rect x="196.59" y="234.28" width="1.33" height="1.33" fill="none"/>
      <circle cx="197.26" cy="234.94" r="0.66" fill="#fff"/>
    </g>
    <g>
      <rect x="141.92" y="227.7" width="2.78" height="2.78" fill="none"/>
      <circle cx="143.31" cy="229.1" r="1.39" fill="#fff"/>
    </g>
    <g>
      <rect x="118.89" y="256.12" width="1.36" height="1.36" fill="none"/>
      <circle cx="119.57" cy="256.8" r="0.68" fill="#fff"/>
    </g>
    <g>
      <rect x="74.34" y="214.83" width="1.14" height="1.14" fill="none"/>
      <circle cx="74.92" cy="215.4" r="0.57" fill="#fff"/>
    </g>
    <g>
      <rect x="37.1" y="227.37" width="2.94" height="2.94" fill="none"/>
      <circle cx="38.57" cy="228.84" r="1.47" fill="#fff"/>
    </g>
    <g>
      <rect x="48.42" y="205.76" width="1.63" height="1.63" fill="none"/>
      <circle cx="49.23" cy="206.57" r="0.81" fill="#fff"/>
    </g>
  </g>
  <g>
    <g>
      <rect x="347.48" y="284.36" width="2.56" height="2.56" fill="none"/>
      <circle cx="348.76" cy="285.64" r="1.28" fill="#fff"/>
    </g>
    <g>
      <rect x="398.5" y="335.96" width="3.27" height="3.27" fill="none"/>
      <circle cx="400.14" cy="337.6" r="1.63" fill="#fff"/>
    </g>
    <g>
      <rect x="501.84" y="364.97" width="1.78" height="1.78" fill="none"/>
      <circle cx="502.73" cy="365.86" r="0.89" fill="#fff"/>
    </g>
    <g>
      <rect x="550.23" y="414.34" width="3.22" height="3.22" fill="none"/>
      <circle cx="551.84" cy="415.95" r="1.61" fill="#fff"/>
    </g>
    <g>
      <rect x="560.24" y="430.58" width="1.92" height="1.92" fill="none"/>
      <circle cx="561.2" cy="431.54" r="0.96" fill="#fff"/>
    </g>
    <g>
      <rect x="573.23" y="448.09" width="2.23" height="2.23" fill="none"/>
      <circle cx="574.34" cy="449.21" r="1.11" fill="#fff"/>
    </g>
    <g>
      <rect x="591.49" y="440.23" width="1.52" height="1.52" fill="none"/>
      <circle cx="592.25" cy="441" r="0.76" fill="#fff"/>
    </g>
    <g>
      <rect x="675.76" y="500.52" width="2.37" height="2.37" fill="none"/>
      <circle cx="676.94" cy="501.71" r="1.18" fill="#fff"/>
    </g>
    <g>
      <rect x="721.59" y="488.65" width="2.54" height="2.54" fill="none"/>
      <circle cx="722.86" cy="489.92" r="1.27" fill="#fff"/>
    </g>
    <g>
      <rect x="727.94" y="468.98" width="2.63" height="2.63" fill="none"/>
      <circle cx="729.26" cy="470.3" r="1.32" fill="#fff"/>
    </g>
  </g>
  <g>
    <g>
      <rect x="956.73" y="607.88" width="1.22" height="1.22" fill="none"/>
      <circle cx="957.34" cy="608.49" r="0.61" fill="#fff"/>
    </g>
    <g>
      <rect x="888.05" y="609.53" width="1.97" height="1.97" fill="none"/>
      <circle cx="889.04" cy="610.51" r="0.98" fill="#fff"/>
    </g>
    <g>
      <rect x="829.45" y="574.03" width="1.4" height="1.4" fill="none"/>
      <circle cx="830.15" cy="574.73" r="0.7" fill="#fff"/>
    </g>
    <g>
      <rect x="781.77" y="570.64" width="1.06" height="1.06" fill="none"/>
      <circle cx="782.3" cy="571.17" r="0.53" fill="#fff"/>
    </g>
    <g>
      <rect x="684.37" y="562.65" width="1.94" height="1.94" fill="none"/>
      <circle cx="685.35" cy="563.62" r="0.97" fill="#fff"/>
    </g>
    <g>
      <rect x="664.48" y="581.72" width="2.67" height="2.67" fill="none"/>
      <circle cx="665.81" cy="583.06" r="1.34" fill="#fff"/>
    </g>
    <g>
      <rect x="651.48" y="566.43" width="2.36" height="2.36" fill="none"/>
      <circle cx="652.66" cy="567.61" r="1.18" fill="#fff"/>
    </g>
    <g>
      <rect x="590.9" y="543.06" width="1.77" height="1.77" fill="none"/>
      <circle cx="591.79" cy="543.94" r="0.88" fill="#fff"/>
    </g>
    <g>
      <rect x="560.42" y="547.68" width="1.54" height="1.54" fill="none"/>
      <circle cx="561.19" cy="548.45" r="0.77" fill="#fff"/>
    </g>
    <g>
      <rect x="533.38" y="537.2" width="2.39" height="2.39" fill="none"/>
      <circle cx="534.58" cy="538.4" r="1.2" fill="#fff"/>
    </g>
    <g>
      <rect x="530.54" y="540.13" width="2.62" height="2.62" fill="none"/>
      <circle cx="531.85" cy="541.44" r="1.31" fill="#fff"/>
    </g>
    <g>
      <rect x="447.51" y="510.94" width="2.76" height="2.76" fill="none"/>
      <circle cx="448.89" cy="512.32" r="1.38" fill="#fff"/>
    </g>
    <g>
      <rect x="401.42" y="515.95" width="1.62" height="1.62" fill="none"/>
      <circle cx="402.23" cy="516.76" r="0.81" fill="#fff"/>
    </g>
    <g>
      <rect x="324.85" y="512.41" width="2.98" height="2.98" fill="none"/>
      <circle cx="326.34" cy="513.9" r="1.49" fill="#fff"/>
    </g>
    <g>
      <rect x="297.56" y="498.68" width="2.12" height="2.12" fill="none"/>
      <circle cx="298.62" cy="499.74" r="1.06" fill="#fff"/>
    </g>
    <g>
      <rect x="214.76" y="508.86" width="3.21" height="3.21" fill="none"/>
      <circle cx="216.37" cy="510.47" r="1.6" fill="#fff"/>
    </g>
    <g>
      <rect x="159.34" y="472.2" width="2.7" height="2.7" fill="none"/>
      <circle cx="160.69" cy="473.55" r="1.35" fill="#fff"/>
    </g>
    <g>
      <rect x="159.58" y="448.46" width="1.07" height="1.07" fill="none"/>
      <circle cx="160.11" cy="449" r="0.54" fill="#fff"/>
    </g>
    <g>
      <rect x="98.36" y="417.74" width="3.11" height="3.11" fill="none"/>
      <circle cx="99.91" cy="419.3" r="1.55" fill="#fff"/>
    </g>
    <g>
      <rect x="104.25" y="439.62" width="2.5" height="2.5" fill="none"/>
      <circle cx="105.5" cy="440.87" r="1.25" fill="#fff"/>
    </g>
    <g>
      <rect x="81.8" y="452.46" width="2.05" height="2.05" fill="none"/>
      <circle cx="82.82" cy="453.49" r="1.02" fill="#fff"/>
    </g>
    <g>
      <rect x="63.07" y="460.92" width="2.73" height="2.73" fill="none"/>
      <circle cx="64.44" cy="462.29" r="1.37" fill="#fff"/>
    </g>
    <g>
      <rect x="73.59" y="484.68" width="2.85" height="2.85" fill="none"/>
      <circle cx="75.02" cy="486.11" r="1.43" fill="#fff"/>
    </g>
  </g>
  <g>
    <g>
      <rect x="548.89" y="11.52" width="2.63" height="2.63" fill="none"/>
      <circle cx="550.2" cy="12.84" r="1.32" fill="#fff"/>
    </g>
    <g>
      <rect x="619.36" y="91.17" width="1.83" height="1.83" fill="none"/>
      <circle cx="620.27" cy="92.09" r="0.91" fill="#fff"/>
    </g>
    <g>
      <rect x="699.26" y="131.55" width="2.07" height="2.07" fill="none"/>
      <circle cx="700.29" cy="132.58" r="1.03" fill="#fff"/>
    </g>
    <g>
      <rect x="712.85" y="160.9" width="2.33" height="2.33" fill="none"/>
      <circle cx="714.02" cy="162.07" r="1.17" fill="#fff"/>
    </g>
    <g>
      <rect x="758.62" y="132.06" width="2.9" height="2.9" fill="none"/>
      <circle cx="760.07" cy="133.51" r="1.45" fill="#fff"/>
    </g>
    <g>
      <rect x="756.58" y="103.47" width="3.16" height="3.16" fill="none"/>
      <circle cx="758.16" cy="105.05" r="1.58" fill="#fff"/>
    </g>
    <g>
      <rect x="874.43" y="106.23" width="3.3" height="3.3" fill="none"/>
      <circle cx="876.08" cy="107.88" r="1.65" fill="#fff"/>
    </g>
    <g>
      <rect x="878.15" y="111.07" width="1.23" height="1.23" fill="none"/>
      <circle cx="878.76" cy="111.69" r="0.61" fill="#fff"/>
    </g>
    <g>
      <rect x="870.98" y="147.98" width="2.32" height="2.32" fill="none"/>
      <circle cx="872.14" cy="149.14" r="1.16" fill="#fff"/>
    </g>
    <g>
      <rect x="876.23" y="147.89" width="1.24" height="1.24" fill="none"/>
      <circle cx="876.85" cy="148.51" r="0.62" fill="#fff"/>
    </g>
    <g>
      <rect x="949.59" y="156.77" width="1.87" height="1.87" fill="none"/>
      <circle cx="950.52" cy="157.71" r="0.93" fill="#fff"/>
    </g>
    <g>
      <rect x="1000.46" y="184.38" width="2.84" height="2.84" fill="none"/>
      <circle cx="1001.89" cy="185.8" r="1.42" fill="#fff"/>
    </g>
    <g>
      <rect x="993.19" y="226.07" width="3.15" height="3.15" fill="none"/>
      <circle cx="994.76" cy="227.65" r="1.57" fill="#fff"/>
    </g>
    <g>
      <rect x="1024.12" y="248.44" width="2.53" height="2.53" fill="none"/>
      <circle cx="1025.38" cy="249.7" r="1.26" fill="#fff"/>
    </g>
  </g>
  <g>
    <g>
      <rect x="558.69" y="343.7" width="1.07" height="1.07" fill="none"/>
      <circle cx="559.22" cy="344.24" r="0.54" fill="#fff"/>
    </g>
    <g>
      <rect x="531.25" y="348.09" width="3.17" height="3.17" fill="none"/>
      <circle cx="532.84" cy="349.67" r="1.59" fill="#fff"/>
    </g>
    <g>
      <rect x="463.61" y="398.2" width="2.75" height="2.75" fill="none"/>
      <circle cx="464.99" cy="399.58" r="1.38" fill="#fff"/>
    </g>
    <g>
      <rect x="394.49" y="342.4" width="1.42" height="1.42" fill="none"/>
      <circle cx="395.21" cy="343.11" r="0.71" fill="#fff"/>
    </g>
    <g>
      <rect x="353.77" y="377.15" width="3.31" height="3.31" fill="none"/>
      <circle cx="355.43" cy="378.81" r="1.66" fill="#fff"/>
    </g>
    <g>
      <rect x="240.31" y="446.28" width="2.17" height="2.17" fill="none"/>
      <circle cx="241.39" cy="447.37" r="1.08" fill="#fff"/>
    </g>
    <g>
      <rect x="223.54" y="383.43" width="3.28" height="3.28" fill="none"/>
      <circle cx="225.18" cy="385.06" r="1.64" fill="#fff"/>
    </g>
    <g>
      <rect x="170.09" y="340.78" width="1.7" height="1.7" fill="none"/>
      <circle cx="170.94" cy="341.63" r="0.85" fill="#fff"/>
    </g>
    <g>
      <rect x="199.84" y="375.52" width="2.65" height="2.65" fill="none"/>
      <circle cx="201.17" cy="376.84" r="1.33" fill="#fff"/>
    </g>
    <g>
      <rect x="187.97" y="383.68" width="2.71" height="2.71" fill="none"/>
      <circle cx="189.33" cy="385.03" r="1.36" fill="#fff"/>
    </g>
  </g>
  <g>
    <g>
      <rect x="400.95" y="52.8" width="2.06" height="2.06" fill="none"/>
      <circle cx="401.98" cy="53.83" r="1.03" fill="#fff"/>
    </g>
    <g>
      <rect x="492.26" y="73.21" width="1.9" height="1.9" fill="none"/>
      <circle cx="493.21" cy="74.16" r="0.95" fill="#fff"/>
    </g>
    <g>
      <rect x="500.08" y="127.55" width="2.75" height="2.75" fill="none"/>
      <circle cx="501.45" cy="128.92" r="1.37" fill="#fff"/>
    </g>
    <g>
      <rect x="608" y="94.97" width="1.27" height="1.27" fill="none"/>
      <circle cx="608.63" cy="95.6" r="0.64" fill="#fff"/>
    </g>
    <g>
      <rect x="633.88" y="128.52" width="1.05" height="1.05" fill="none"/>
      <circle cx="634.41" cy="129.04" r="0.52" fill="#fff"/>
    </g>
    <g>
      <rect x="692.04" y="141.32" width="1.81" height="1.81" fill="none"/>
      <circle cx="692.95" cy="142.22" r="0.9" fill="#fff"/>
    </g>
    <g>
      <rect x="741.21" y="137.62" width="1.84" height="1.84" fill="none"/>
      <circle cx="742.13" cy="138.54" r="0.92" fill="#fff"/>
    </g>
    <g>
      <rect x="790.92" y="161.35" width="2.49" height="2.49" fill="none"/>
      <circle cx="792.16" cy="162.6" r="1.25" fill="#fff"/>
    </g>
    <g>
      <rect x="774.98" y="199.05" width="1.56" height="1.56" fill="none"/>
      <circle cx="775.76" cy="199.83" r="0.78" fill="#fff"/>
    </g>
    <g>
      <rect x="803.74" y="280.06" width="1.91" height="1.91" fill="none"/>
      <circle cx="804.69" cy="281.01" r="0.95" fill="#fff"/>
    </g>
    <g>
      <rect x="838.57" y="289.34" width="1.12" height="1.12" fill="none"/>
      <circle cx="839.12" cy="289.9" r="0.56" fill="#fff"/>
    </g>
    <g>
      <rect x="844.59" y="288.69" width="2.02" height="2.02" fill="none"/>
      <circle cx="845.59" cy="289.69" r="1.01" fill="#fff"/>
    </g>
    <g>
      <rect x="840.96" y="365.11" width="1.84" height="1.84" fill="none"/>
      <circle cx="841.88" cy="366.03" r="0.92" fill="#fff"/>
    </g>
    <g>
      <rect x="903.75" y="394.51" width="2.07" height="2.07" fill="none"/>
      <circle cx="904.78" cy="395.54" r="1.04" fill="#fff"/>
    </g>
    <g>
      <rect x="899.39" y="437.22" width="1.86" height="1.86" fill="none"/>
      <circle cx="900.33" cy="438.15" r="0.93" fill="#fff"/>
    </g>
    <g>
      <rect x="949.68" y="454.98" width="1.83" height="1.83" fill="none"/>
      <circle cx="950.59" cy="455.9" r="0.91" fill="#fff"/>
    </g>
  </g>
  <g>
    <g>
      <rect x="191.18" y="592.87" width="2" height="2" fill="none"/>
      <circle cx="192.19" cy="593.88" r="1" fill="#fff"/>
    </g>
    <g>
      <rect x="95.95" y="551.61" width="1.16" height="1.16" fill="none"/>
      <circle cx="96.54" cy="552.19" r="0.58" fill="#fff"/>
    </g>
    <g>
      <rect x="82.96" y="486.71" width="2.24" height="2.24" fill="none"/>
      <circle cx="84.08" cy="487.83" r="1.12" fill="#fff"/>
    </g>
    <g>
      <rect x="49.25" y="499.22" width="1.88" height="1.88" fill="none"/>
      <circle cx="50.19" cy="500.16" r="0.94" fill="#fff"/>
    </g>
    <g>
      <rect x="31.95" y="449.14" width="1.04" height="1.04" fill="none"/>
      <circle cx="32.47" cy="449.66" r="0.52" fill="#fff"/>
    </g>
    <g>
      <rect x="6.37" y="361.66" width="2.81" height="2.81" fill="none"/>
      <circle cx="7.77" cy="363.06" r="1.4" fill="#fff"/>
    </g>
    <g>
      <rect x="11.54" y="333.3" width="1.11" height="1.11" fill="none"/>
      <circle cx="12.09" cy="333.85" r="0.55" fill="#fff"/>
    </g>
    <g>
      <rect x="25.98" y="300.6" width="2.77" height="2.77" fill="none"/>
      <circle cx="27.37" cy="301.99" r="1.38" fill="#fff"/>
    </g>
    <g>
      <rect x="17.86" y="279.87" width="2.49" height="2.49" fill="none"/>
      <circle cx="19.1" cy="281.11" r="1.24" fill="#fff"/>
    </g>
  </g>
  <g>
    <g>
      <rect x="808.22" y="286.14" width="2.29" height="2.29" fill="none"/>
      <circle cx="809.36" cy="287.28" r="1.14" fill="#fff"/>
    </g>
    <g>
      <rect x="766.01" y="231.61" width="1.04" height="1.04" fill="none"/>
      <circle cx="766.53" cy="232.13" r="0.52" fill="#fff"/>
    </g>
    <g>
      <rect x="714.27" y="268.24" width="1.71" height="1.71" fill="none"/>
      <circle cx="715.12" cy="269.1" r="0.86" fill="#fff"/>
    </g>
    <g>
      <rect x="721.49" y="234.78" width="3.12" height="3.12" fill="none"/>
      <circle cx="723.05" cy="236.34" r="1.56" fill="#fff"/>
    </g>
    <g>
      <rect x="683.96" y="226.45" width="1.86" height="1.86" fill="none"/>
      <circle cx="684.89" cy="227.38" r="0.93" fill="#fff"/>
    </g>
    <g>
      <rect x="621.47" y="170.37" width="1.26" height="1.26" fill="none"/>
      <circle cx="622.1" cy="171" r="0.63" fill="#fff"/>
    </g>
    <g>
      <rect x="623.47" y="156.62" width="1.49" height="1.49" fill="none"/>
      <circle cx="624.21" cy="157.37" r="0.75" fill="#fff"/>
    </g>
    <g>
      <rect x="584.95" y="212.62" width="1.4" height="1.4" fill="none"/>
      <circle cx="585.65" cy="213.32" r="0.7" fill="#fff"/>
    </g>
    <g>
      <rect x="564.38" y="178.7" width="1.89" height="1.89" fill="none"/>
      <circle cx="565.32" cy="179.65" r="0.94" fill="#fff"/>
    </g>
    <g>
      <rect x="559.27" y="197.43" width="1.39" height="1.39" fill="none"/>
      <circle cx="559.97" cy="198.12" r="0.7" fill="#fff"/>
    </g>
    <g>
      <rect x="473.98" y="181.29" width="1.54" height="1.54" fill="none"/>
      <circle cx="474.75" cy="182.06" r="0.77" fill="#fff"/>
    </g>
    <g>
      <rect x="430.63" y="239.05" width="3.03" height="3.03" fill="none"/>
      <circle cx="432.15" cy="240.56" r="1.51" fill="#fff"/>
    </g>
    <g>
      <rect x="401.23" y="246.16" width="3.13" height="3.13" fill="none"/>
      <circle cx="402.8" cy="247.73" r="1.57" fill="#fff"/>
    </g>
    <g>
      <rect x="373.24" y="250.18" width="2.31" height="2.31" fill="none"/>
      <circle cx="374.39" cy="251.34" r="1.15" fill="#fff"/>
    </g>
    <g>
      <rect x="369.23" y="276.7" width="3.13" height="3.13" fill="none"/>
      <circle cx="370.8" cy="278.26" r="1.56" fill="#fff"/>
    </g>
    <g>
      <rect x="372.6" y="364.83" width="2.39" height="2.39" fill="none"/>
      <circle cx="373.8" cy="366.03" r="1.2" fill="#fff"/>
    </g>
    <g>
      <rect x="352" y="415" width="1.38" height="1.38" fill="none"/>
      <circle cx="352.68" cy="415.69" r="0.69" fill="#fff"/>
    </g>
    <g>
      <rect x="321.44" y="489.55" width="1.53" height="1.53" fill="none"/>
      <circle cx="322.2" cy="490.32" r="0.76" fill="#fff"/>
    </g>
    <g>
      <rect x="357.46" y="487.09" width="2.38" height="2.38" fill="none"/>
      <circle cx="358.65" cy="488.28" r="1.19" fill="#fff"/>
    </g>
    <g>
      <rect x="393.18" y="562.41" width="1.98" height="1.98" fill="none"/>
      <circle cx="394.17" cy="563.4" r="0.99" fill="#fff"/>
    </g>
  </g>
  <g>
    <g>
      <rect x="331.58" y="238.32" width="1.42" height="1.42" fill="none"/>
      <circle cx="332.29" cy="239.03" r="0.71" fill="#fff"/>
    </g>
    <g>
      <rect x="309.92" y="218.22" width="1.11" height="1.11" fill="none"/>
      <circle cx="310.48" cy="218.78" r="0.56" fill="#fff"/>
    </g>
    <g>
      <rect x="264.38" y="182.56" width="3.15" height="3.15" fill="none"/>
      <circle cx="265.95" cy="184.13" r="1.58" fill="#fff"/>
    </g>
    <g>
      <rect x="146.95" y="207.29" width="3.25" height="3.25" fill="none"/>
      <circle cx="148.58" cy="208.91" r="1.62" fill="#fff"/>
    </g>
    <g>
      <rect x="128.04" y="172.14" width="1.28" height="1.28" fill="none"/>
      <circle cx="128.68" cy="172.78" r="0.64" fill="#fff"/>
    </g>
    <g>
      <rect x="115.28" y="82.59" width="1.42" height="1.42" fill="none"/>
      <circle cx="115.99" cy="83.3" r="0.71" fill="#fff"/>
    </g>
    <g>
      <rect x="91.15" y="134.29" width="1.68" height="1.68" fill="none"/>
      <circle cx="91.99" cy="135.13" r="0.84" fill="#fff"/>
    </g>
  </g>
  <g>
    <g>
      <rect x="228.77" y="-0.04" width="2.67" height="2.67" fill="none"/>
      <circle cx="230.1" cy="1.29" r="1.33" fill="#fff"/>
    </g>
    <g>
      <rect x="230.75" y="20.37" width="1.62" height="1.62" fill="none"/>
      <circle cx="231.56" cy="21.18" r="0.81" fill="#fff"/>
    </g>
    <g>
      <rect x="288.41" y="46.81" width="1.67" height="1.67" fill="none"/>
      <circle cx="289.24" cy="47.65" r="0.83" fill="#fff"/>
    </g>
    <g>
      <rect x="322.27" y="83.23" width="3.32" height="3.32" fill="none"/>
      <circle cx="323.94" cy="84.89" r="1.66" fill="#fff"/>
    </g>
    <g>
      <rect x="346.19" y="75.34" width="2.73" height="2.73" fill="none"/>
      <circle cx="347.56" cy="76.7" r="1.37" fill="#fff"/>
    </g>
    <g>
      <rect x="385.64" y="133.57" width="1.65" height="1.65" fill="none"/>
      <circle cx="386.47" cy="134.4" r="0.83" fill="#fff"/>
    </g>
    <g>
      <rect x="449.96" y="163.34" width="2.62" height="2.62" fill="none"/>
      <circle cx="451.28" cy="164.65" r="1.31" fill="#fff"/>
    </g>
  </g>
  <g>
    <g>
      <rect x="509.46" y="604.95" width="2.91" height="2.91" fill="none"/>
      <circle cx="510.92" cy="606.4" r="1.45" fill="#fff"/>
    </g>
    <g>
      <rect x="456.16" y="544.74" width="3.1" height="3.1" fill="none"/>
      <circle cx="457.71" cy="546.29" r="1.55" fill="#fff"/>
    </g>
    <g>
      <rect x="428.63" y="557.61" width="1.22" height="1.22" fill="none"/>
      <circle cx="429.23" cy="558.22" r="0.61" fill="#fff"/>
    </g>
    <g>
      <rect x="368.41" y="558.8" width="2.76" height="2.76" fill="none"/>
      <circle cx="369.79" cy="560.18" r="1.38" fill="#fff"/>
    </g>
    <g>
      <rect x="338.96" y="545.94" width="2.56" height="2.56" fill="none"/>
      <circle cx="340.24" cy="547.22" r="1.28" fill="#fff"/>
    </g>
    <g>
      <rect x="241.25" y="445.98" width="2.82" height="2.82" fill="none"/>
      <circle cx="242.66" cy="447.39" r="1.41" fill="#fff"/>
    </g>
    <g>
      <rect x="300.58" y="356.06" width="3.12" height="3.12" fill="none"/>
      <circle cx="302.14" cy="357.63" r="1.56" fill="#fff"/>
    </g>
    <g>
      <rect x="198.97" y="314.82" width="2.49" height="2.49" fill="none"/>
      <circle cx="200.21" cy="316.06" r="1.24" fill="#fff"/>
    </g>
    <g>
      <rect x="180.52" y="260.81" width="1.75" height="1.75" fill="none"/>
      <circle cx="181.4" cy="261.69" r="0.88" fill="#fff"/>
    </g>
    <g>
      <rect x="126.12" y="224.42" width="1.77" height="1.77" fill="none"/>
      <circle cx="127.01" cy="225.31" r="0.88" fill="#fff"/>
    </g>
  </g>
  <g>
    <g>
      <rect x="227.09" y="48.16" width="2.94" height="2.94" fill="none"/>
      <circle cx="228.56" cy="49.63" r="1.47" fill="#fff"/>
    </g>
    <g>
      <rect x="287.98" y="50.7" width="2.35" height="2.35" fill="none"/>
      <circle cx="289.15" cy="51.88" r="1.17" fill="#fff"/>
    </g>
    <g>
      <rect x="322.87" y="137.47" width="1.58" height="1.58" fill="none"/>
      <circle cx="323.66" cy="138.26" r="0.79" fill="#fff"/>
    </g>
    <g>
      <rect x="380.37" y="218.81" width="2.98" height="2.98" fill="none"/>
      <circle cx="381.86" cy="220.3" r="1.49" fill="#fff"/>
    </g>
    <g>
      <rect x="377.34" y="267.84" width="1.89" height="1.89" fill="none"/>
      <circle cx="378.28" cy="268.79" r="0.94" fill="#fff"/>
    </g>
    <g>
      <rect x="414.26" y="298.62" width="2.89" height="2.89" fill="none"/>
      <circle cx="415.71" cy="300.07" r="1.45" fill="#fff"/>
    </g>
    <g>
      <rect x="425.09" y="303.25" width="1.07" height="1.07" fill="none"/>
      <circle cx="425.62" cy="303.79" r="0.54" fill="#fff"/>
    </g>
    <g>
      <rect x="414.98" y="377.5" width="3.16" height="3.16" fill="none"/>
      <circle cx="416.56" cy="379.09" r="1.58" fill="#fff"/>
    </g>
    <g>
      <rect x="474.84" y="365.15" width="2.9" height="2.9" fill="none"/>
      <circle cx="476.28" cy="366.59" r="1.45" fill="#fff"/>
    </g>
    <g>
      <rect x="545.85" y="424.65" width="1.32" height="1.32" fill="none"/>
      <circle cx="546.51" cy="425.31" r="0.66" fill="#fff"/>
    </g>
    <g>
      <rect x="596.55" y="483.47" width="2.33" height="2.33" fill="none"/>
      <circle cx="597.71" cy="484.64" r="1.17" fill="#fff"/>
    </g>
  </g>
  <g>
    <g>
      <rect x="942.03" y="552.2" width="2.94" height="2.94" fill="none"/>
      <circle cx="943.5" cy="553.67" r="1.47" fill="#fff"/>
    </g>
    <g>
      <rect x="893.59" y="523.49" width="1.21" height="1.21" fill="none"/>
      <circle cx="894.2" cy="524.1" r="0.6" fill="#fff"/>
    </g>
    <g>
      <rect x="872.03" y="480.13" width="1.58" height="1.58" fill="none"/>
      <circle cx="872.82" cy="480.92" r="0.79" fill="#fff"/>
    </g>
    <g>
      <rect x="842.89" y="417.55" width="1.11" height="1.11" fill="none"/>
      <circle cx="843.44" cy="418.11" r="0.55" fill="#fff"/>
    </g>
    <g>
      <rect x="849.24" y="408.66" width="2.2" height="2.2" fill="none"/>
      <circle cx="850.34" cy="409.76" r="1.1" fill="#fff"/>
    </g>
    <g>
      <rect x="796.79" y="416.01" width="3.18" height="3.18" fill="none"/>
      <circle cx="798.38" cy="417.6" r="1.59" fill="#fff"/>
    </g>
    <g>
      <rect x="825.66" y="364.17" width="2.39" height="2.39" fill="none"/>
      <circle cx="826.85" cy="365.36" r="1.19" fill="#fff"/>
    </g>
    <g>
      <rect x="775.69" y="392.28" width="1.41" height="1.41" fill="none"/>
      <circle cx="776.39" cy="392.98" r="0.7" fill="#fff"/>
    </g>
    <g>
      <rect x="778.17" y="338.79" width="1.32" height="1.32" fill="none"/>
      <circle cx="778.83" cy="339.45" r="0.66" fill="#fff"/>
    </g>
    <g>
      <rect x="757.03" y="386.73" width="1.45" height="1.45" fill="none"/>
      <circle cx="757.75" cy="387.45" r="0.72" fill="#fff"/>
    </g>
    <g>
      <rect x="665.05" y="323.6" width="2.02" height="2.02" fill="none"/>
      <circle cx="666.07" cy="324.61" r="1.01" fill="#fff"/>
    </g>
    <g>
      <rect x="656.47" y="311.67" width="3.21" height="3.21" fill="none"/>
      <circle cx="658.08" cy="313.27" r="1.6" fill="#fff"/>
    </g>
    <g>
      <rect x="607.64" y="259.29" width="2.74" height="2.74" fill="none"/>
      <circle cx="609.01" cy="260.67" r="1.37" fill="#fff"/>
    </g>
    <g>
      <rect x="581.84" y="216.51" width="3.07" height="3.07" fill="none"/>
      <circle cx="583.37" cy="218.04" r="1.53" fill="#fff"/>
    </g>
    <g>
      <rect x="499.68" y="193.67" width="2.55" height="2.55" fill="none"/>
      <circle cx="500.96" cy="194.94" r="1.27" fill="#fff"/>
    </g>
    <g>
      <rect x="416.62" y="217.26" width="3.1" height="3.1" fill="none"/>
      <circle cx="418.17" cy="218.81" r="1.55" fill="#fff"/>
    </g>
    <g>
      <rect x="355.41" y="218.12" width="2.71" height="2.71" fill="none"/>
      <circle cx="356.77" cy="219.48" r="1.36" fill="#fff"/>
    </g>
    <g>
      <rect x="260.47" y="224.95" width="3.23" height="3.23" fill="none"/>
      <circle cx="262.09" cy="226.57" r="1.62" fill="#fff"/>
    </g>
    <g>
      <rect x="237.64" y="222.08" width="1.85" height="1.85" fill="none"/>
      <circle cx="238.57" cy="223.01" r="0.92" fill="#fff"/>
    </g>
  </g>
</svg>
