<svg xmlns="http://www.w3.org/2000/svg" viewBox="0 0 558 270">
  <title>logo-overlay</title>
  <g id="Lines_1" data-name="Lines 1">
    <line x1="36" y1="36" x2="45" y2="198" fill="none" stroke="#fff" stroke-miterlimit="10" stroke-dasharray="2"/>
    <line x1="81" y1="99" x2="90" y2="243" fill="none" stroke="#fff" stroke-miterlimit="10" stroke-dasharray="2"/>
    <line x1="117" y1="63" x2="135" y2="162" fill="none" stroke="#fff" stroke-miterlimit="10" stroke-dasharray="2"/>
    <polyline points="225 36 252 108 234 234" fill="none" stroke="#fff" stroke-miterlimit="10" stroke-dasharray="2"/>
    <polyline points="333 207 396 27 396 117 423 171 387 252" fill="none" stroke="#fff" stroke-miterlimit="10" stroke-dasharray="2"/>
    <polyline points="459 54 513 135 540 234" fill="none" stroke="#fff" stroke-miterlimit="10" stroke-dasharray="2"/>
  </g>
  <g id="Lines_2" data-name="Lines 2">
    <polyline points="36 36 117 63 225 36 396 27 459 54" fill="none" stroke="#fff" stroke-miterlimit="10" stroke-dasharray="2"/>
    <polyline points="81 99 252 108 378 117 513 135" fill="none" stroke="#fff" stroke-miterlimit="10" stroke-dasharray="2"/>
    <polyline points="45 198 135 162 333 207 423 171" fill="none" stroke="#fff" stroke-miterlimit="10" stroke-dasharray="2"/>
    <polyline points="90 243 234 234 387 252 540 234" fill="none" stroke="#fff" stroke-miterlimit="10" stroke-dasharray="2"/>
  </g>
  <g id="Lines_3" data-name="Lines 3">
    <polyline points="81 99 117 63 252 108 135 162 90 243 45 198 81 99 36 36" fill="none" stroke="#fff" stroke-miterlimit="10" stroke-dasharray="2"/>
    <polyline points="252 108 333 207 234 234 135 162" fill="none" stroke="#fff" stroke-miterlimit="10" stroke-dasharray="2"/>
    <polyline points="225 36 396 117 333 207 387 252 432 207 513 135 459 54" fill="none" stroke="#fff" stroke-miterlimit="10" stroke-dasharray="2"/>
  </g>
  <g id="Lines_4" data-name="Lines 4">
    <polyline points="540 234 423 171 513 135" fill="none" stroke="#fff" stroke-miterlimit="10" stroke-dasharray="2"/>
    <polyline points="423 171 459 54 396 117" fill="none" stroke="#fff" stroke-miterlimit="10" stroke-dasharray="2"/>
  </g>
  <g id="Lines_5" data-name="Lines 5">
    <line x1="81" y1="99" x2="135" y2="162" fill="none" stroke="#fff" stroke-miterlimit="10" stroke-dasharray="2"/>
    <line x1="225" y1="36" x2="333" y2="207" fill="none" stroke="#fff" stroke-miterlimit="10" stroke-dasharray="2"/>
    <polyline points="396 27 252 108 459 54" fill="none" stroke="#fff" stroke-miterlimit="10" stroke-dasharray="2"/>
    <line x1="396" y1="117" x2="387" y2="252" fill="none" stroke="#fff" stroke-miterlimit="10" stroke-dasharray="2"/>
  </g>
  <g id="SDGs">
    <circle cx="117" cy="63" r="9" fill="#2d9a47"/>
    <circle cx="396" cy="27" r="9" fill="#ef412a"/>
    <circle cx="252" cy="108" r="9" fill="#f36e24"/>
    <circle cx="90" cy="243" r="9" fill="#cd8b2a"/>
    <circle cx="423" cy="171" r="9" fill="#00558a"/>
    <circle cx="387" cy="252" r="9" fill="#40ae49"/>
    <circle cx="225" cy="36" r="9" fill="#c22033"/>
    <circle cx="135" cy="162" r="9" fill="#8f1838"/>
    <circle cx="81" cy="99" r="9" fill="#d19f2a"/>
    <circle cx="45" cy="198" r="9" fill="#fdb714"/>
    <circle cx="333" cy="207" r="9" fill="#007dbb"/>
    <circle cx="513" cy="135" r="9" fill="#f99d25"/>
    <circle cx="540" cy="234" r="9" fill="#1a3668"/>
    <circle cx="459" cy="54" r="9" fill="#00add8"/>
    <circle cx="396" cy="117" r="9" fill="#e01a83"/>
    <circle cx="36" cy="36" r="9" fill="#ea1c2d"/>
    <circle cx="234" cy="234" r="9" fill="#48773c"/>
  </g>
</svg>
